<?xml version="1.0" encoding="UTF-8"?>
<svg xmlns="http://www.w3.org/2000/svg" id="Layer_36" data-name="Layer 36" viewBox="0 0 100 100" width="512" height="512"><path d="M90.39,4H49.61a5.62,5.62,0,0,0-5,3.1,28.32,28.32,0,0,0-14.74-4C15.6,3.05,4,13.21,4,25.71S15.6,48.36,29.86,48.36a28.92,28.92,0,0,0,8.46-1.24L44,48.54V90.39A5.62,5.62,0,0,0,49.61,96H90.39A5.62,5.62,0,0,0,96,90.39V9.61A5.62,5.62,0,0,0,90.39,4ZM83,6l-3.55,4.93h-19L57,6ZM38.54,45.11l-.24,0a1,1,0,0,0-.3.05,27.12,27.12,0,0,1-8.14,1.23C16.7,46.36,6,37.1,6,25.71S16.7,5.05,29.86,5.05s23.87,9.27,23.87,20.66c0,6.12-3.12,11.89-8.54,15.83a1,1,0,0,0-.41.67A1,1,0,0,0,45,43l3.66,4.69ZM94,90.39A3.61,3.61,0,0,1,90.39,94H49.61A3.61,3.61,0,0,1,46,90.39V49l5,1.25a1,1,0,0,0,.25,0A1,1,0,0,0,52,48.71l-4.82-6.18a21.44,21.44,0,0,0,8.54-16.82c0-7-3.69-13.34-9.45-17.5A3.61,3.61,0,0,1,49.61,6h4.88l4.7,6.51a1,1,0,0,0,.81.42H80a1,1,0,0,0,.81-.42L85.51,6h4.88A3.61,3.61,0,0,1,94,9.61Z"/><path d="M77.88,81.48H61.48a4.41,4.41,0,1,0,0,8.81h16.4a4.41,4.41,0,1,0,0-8.81Zm0,6.81H61.48a2.41,2.41,0,1,1,0-4.81h16.4a2.41,2.41,0,1,1,0,4.81Z"/><path d="M59.92,50.15l.27,0a11.05,11.05,0,0,0,19.62,0l.27,0a5.14,5.14,0,0,0,2.74-9.5,14.35,14.35,0,0,0-3.68-7.77A12.34,12.34,0,0,0,70,29.44a12.34,12.34,0,0,0-9.14,3.44,14.35,14.35,0,0,0-3.68,7.77,5.14,5.14,0,0,0,2.74,9.5Zm18.47-1.68c-1.38,1.25-3.68,1.35-4.79,1.32a3.34,3.34,0,0,0-3-1.47c-1.81,0-3.23,1.07-3.23,2.42s1.42,2.42,3.23,2.42a3.4,3.4,0,0,0,2.92-1.37h.37a12.49,12.49,0,0,0,2.33-.23,9,9,0,1,1,2.15-3.1Zm-6.54,2.27a1.56,1.56,0,0,1-1.23.42,1.67,1.67,0,0,1-1.23-.4,1.51,1.51,0,0,1,1.23-.44A1.6,1.6,0,0,1,71.85,50.74Zm8.78-8.84a3.14,3.14,0,0,1,0,6.19,10.87,10.87,0,0,0,0-6.19ZM62.28,34.29A10.42,10.42,0,0,1,70,31.44a10.43,10.43,0,0,1,7.71,2.84,11.75,11.75,0,0,1,2.92,5.62,4.89,4.89,0,0,0-.55,0l-.27,0a11.06,11.06,0,0,0-19.62,0l-.27,0a4.89,4.89,0,0,0-.55,0A11.7,11.7,0,0,1,62.28,34.29ZM59.37,41.9a10.87,10.87,0,0,0,0,6.19,3.14,3.14,0,0,1,0-6.19Z"/><path d="M76.13,58.24A24.6,24.6,0,0,0,70,57.52c-.59,0-1.17,0-1.74,0a25.23,25.23,0,0,0-3,.35c-.49.09-1,.2-1.43.32h0c-13.49,3.38-13.64,17.83-13.64,18a1,1,0,0,0,1,1H88.77a1,1,0,0,0,1-1C89.77,76.07,89.62,61.62,76.13,58.24ZM74.71,60a4.93,4.93,0,0,1-9.42,0A25.29,25.29,0,0,1,74.71,60ZM52.28,75.21c.26-3,1.85-11.83,11.08-14.73a6.92,6.92,0,0,0,13.28,0c9.23,2.9,10.82,11.72,11.08,14.73Z"/><path d="M29.86,7.43a5.53,5.53,0,0,0-4.07,1.74,4.55,4.55,0,0,0-1.24,3.51l1.37,16.13a4,4,0,0,0,7.89,0l1.36-16.13a4.58,4.58,0,0,0-1.23-3.51A5.54,5.54,0,0,0,29.86,7.43Zm1.95,21.21a2,2,0,0,1-3.9,0L26.55,12.52a2.63,2.63,0,0,1,.71-2,3.51,3.51,0,0,1,2.6-1.09,3.55,3.55,0,0,1,2.61,1.09,2.63,2.63,0,0,1,.71,2Z"/><path d="M29.86,34.92a4.3,4.3,0,1,0,4.3,4.29A4.3,4.3,0,0,0,29.86,34.92Zm0,6.59a2.3,2.3,0,1,1,2.3-2.3A2.3,2.3,0,0,1,29.86,41.51Z"/></svg>
