<svg id="Outline" height="512" viewBox="0 0 128 128" width="512" xmlns="http://www.w3.org/2000/svg"><g id="Outline-2" data-name="Outline"><path d="m9.613 128h36.828a7.54 7.54 0 0 0 7.489-7c.948-13.608-.326-26.119-3.588-35.368 7.7-9.1 16.956-21.675 12.43-28.923-1.284-2.058-4.361-5.026-7.578-4.727-3.12.278-4.716 2.875-6.566 5.882-2.09 3.768-7.709 10.685-12.351 11.292a41.426 41.426 0 0 1 -4.664-.394 25.9 25.9 0 0 0 -23.09 8.4c-11.948 13.317-8.323 35.946-6.21 45.058a7.452 7.452 0 0 0 7.3 5.78zm1.146-48.84a22.943 22.943 0 0 1 20.434-7.43 44.673 44.673 0 0 0 5 .422c6.06-.3 12.423-8.269 14.986-12.719 1.7-2.76 2.732-4.329 4.277-4.466 1.669-.159 3.836 1.836 4.767 3.327 1.755 2.813 1.151 9.287-11.14 24.152-.322-.736-.654-1.438-.994-2.1a1.5 1.5 0 1 0 -2.668 1.371c5.271 11.056 6.388 23.245 5.512 39.072a4.532 4.532 0 0 1 -4.5 4.211h-27.333c-3.45-10.6-4.68-19.615-3.617-26.78a1.5 1.5 0 1 0 -2.966-.44c-1.1 7.415.049 16.566 3.418 27.22h-6.322a4.465 4.465 0 0 1 -4.378-3.458c-2.006-8.655-5.486-30.111 5.524-42.382z"/><path d="m28 39a13.5 13.5 0 1 0 13.5 13.5 13.515 13.515 0 0 0 -13.5-13.5zm0 24a10.5 10.5 0 1 1 10.5-10.5 10.512 10.512 0 0 1 -10.5 10.5z"/><path d="m74.07 121a7.54 7.54 0 0 0 7.489 7h36.828a7.452 7.452 0 0 0 7.3-5.78c2.113-9.112 5.738-31.741-6.21-45.061a25.9 25.9 0 0 0 -23.09-8.4 41.426 41.426 0 0 1 -4.664.394c-4.642-.607-10.261-7.524-12.351-11.292-1.85-3.007-3.446-5.6-6.566-5.882-3.217-.3-6.294 2.669-7.578 4.727-4.526 7.248 4.731 19.821 12.43 28.923-3.258 9.249-4.536 21.76-3.588 35.371zm8.5-39.28a1.5 1.5 0 1 0 -2.668-1.371c-.34.662-.672 1.364-.994 2.1-12.291-14.865-12.9-21.339-11.14-24.152.931-1.491 3.1-3.486 4.767-3.327 1.545.137 2.58 1.706 4.277 4.466 2.563 4.45 8.926 12.423 14.986 12.719a44.673 44.673 0 0 0 5-.422 22.943 22.943 0 0 1 20.434 7.43c11.01 12.271 7.53 33.727 5.524 42.382a4.465 4.465 0 0 1 -4.369 3.455h-6.322c3.369-10.654 4.52-19.805 3.418-27.22a1.5 1.5 0 1 0 -2.966.44c1.063 7.165-.167 16.181-3.617 26.78h-27.341a4.53 4.53 0 0 1 -4.5-4.211c-.873-15.827.241-28.016 5.515-39.072z"/><path d="m86.5 52.5a13.5 13.5 0 1 0 13.5-13.5 13.515 13.515 0 0 0 -13.5 13.5zm24 0a10.5 10.5 0 1 1 -10.5-10.5 10.512 10.512 0 0 1 10.5 10.5z"/><path d="m44.7 25.972-11.661-11.658a5 5 0 1 0 -7.081 7.061l11.642 11.645a5 5 0 1 0 7.1-7.048zm-2.143 4.972a2.074 2.074 0 0 1 -2.806-.023l-11.694-11.689a2 2 0 0 1 2.851-2.806l11.692 11.689a2.026 2.026 0 0 1 -.048 2.829z"/><path d="m83.327 33.065a5.057 5.057 0 0 0 7.07-.045l11.645-11.645a5 5 0 1 0 -7.081-7.061l-11.656 11.658a5.052 5.052 0 0 0 .022 7.093zm2.076-4.95 11.689-11.689a2 2 0 0 1 2.851 2.806l-11.689 11.689a2.074 2.074 0 0 1 -2.806.023 2.026 2.026 0 0 1 -.048-2.829z"/><path d="m64 26.75a5.142 5.142 0 0 0 5-5.019c-.1-4.135-.093-12.39 0-16.465a5 5 0 1 0 -10 0c.092 4.046.1 12.3 0 16.465a5.14 5.14 0 0 0 5 5.019zm-2-21.515a2 2 0 0 1 4 0c-.092 4.09-.1 12.379 0 16.534a2 2 0 0 1 -4 0c.1-4.19.09-12.469 0-16.534z"/></g></svg>